<?xml version="1.0" encoding="UTF-8"?>
<svg width="38px" height="38px" viewBox="0 0 38 38" version="1.1" xmlns="http://www.w3.org/2000/svg" xmlns:xlink="http://www.w3.org/1999/xlink">
    <!-- Generator: Sketch 55.1 (78136) - https://sketchapp.com -->
    <title>icon-trolleybus</title>
    <desc>Created with Sketch.</desc>
    <g id="Transport" stroke="none" stroke-width="1" fill="none" fill-rule="evenodd">
        <g id="Icons" transform="translate(-38.000000, 0.000000)">
            <g id="Trolleybus" transform="translate(38.000000, 0.000000)">
                <path d="M19,37.179939 L24.2581419,30.3443545 L24.3664119,30.2928085 C28.6881118,28.235298 31.5,23.8715911 31.5,19 C31.5,12.0964406 25.9035594,6.5 19,6.5 C12.0964406,6.5 6.5,12.0964406 6.5,19 C6.5,23.8715911 9.31188822,28.235298 13.6335881,30.2928085 L13.7418581,30.3443545 L19,37.179939 Z" id="icon-pin" stroke="#8E3339" fill="#E0535D"></path>
                <path d="M23.7338688,25.1858997 C23.7338688,25.3765302 23.5774075,25.5323397 23.3878943,25.5323397 L20.8914963,25.5323397 C20.7020762,25.5323397 20.6109739,25.3897044 20.6907175,25.2182533 L21.0048505,24.5276078 C21.0839889,24.3548998 21.3027833,24.2133817 21.4928552,24.2133817 L23.388546,24.2133817 C23.5780127,24.2133817 23.7338688,24.368074 23.7338688,24.5587511 L23.7338688,25.1858997 Z M19.4334874,23.0311469 L19.4334874,17.6249692 L19.5210052,17.6249692 L23.0120334,17.6249692 C23.402372,17.6249692 23.7194842,17.9289072 23.7194842,18.304163 L23.7194842,22.3537221 C23.7194842,22.7290244 23.402372,23.0311469 23.0120334,23.0311469 L19.5210052,23.0311469 L19.4334874,23.0311469 Z M18.4058519,23.0311469 L14.7787988,23.0311469 C14.3897171,23.0311469 14.0725117,22.7290244 14.0725117,22.3537221 L14.0725117,18.304163 C14.0725117,17.9289072 14.3896705,17.6249692 14.7787988,17.6249692 L18.4058519,17.6249692 L18.4058519,23.0311469 L18.4058519,23.0311469 Z M16.9082738,25.5323397 L14.4118758,25.5323397 C14.2224092,25.5323397 14.0665065,25.3764836 14.0665065,25.1858997 L14.0665065,24.5587511 C14.0665065,24.368074 14.221804,24.2133817 14.4112707,24.2133817 L16.3063563,24.2133817 C16.4970334,24.2133817 16.7158278,24.3548998 16.7949662,24.5276078 L17.1097043,25.2182533 C17.1888427,25.3897044 17.0970887,25.5323397 16.9082738,25.5323397 L16.9082738,25.5323397 Z M14.0580806,16.1435446 C14.0580806,15.9535193 14.2134246,15.7982219 14.4034499,15.7982219 L17.1391252,15.7982219 L17.830376,15.7982219 L19.8633487,15.7982219 L20.5540408,15.7982219 L23.3723925,15.7982219 C23.5630695,15.7982219 23.7171101,15.9535193 23.7171101,16.1435446 L23.7171101,16.5248056 C23.7171101,16.7148774 23.5630229,16.8695232 23.3723925,16.8695232 L20.5539943,16.8695232 L19.8633021,16.8695232 L17.8303294,16.8695232 L17.1390787,16.8695232 L14.4034034,16.8695232 C14.2133781,16.8695232 14.0580806,16.7148774 14.0580806,16.5248056 L14.0580806,16.1435446 L14.0580806,16.1435446 Z M23.7069152,14.8635041 L21.6937271,14.8635041 L20.6589225,14.8635041 L24.7878528,10.7304306 C24.9035811,10.6153075 24.8028426,10.4510255 24.6871608,10.3359024 C24.5720377,10.2202206 24.38434,10.1968515 24.2692169,10.3125333 L19.7014408,14.8635041 L17.4106631,14.8635041 L22.2836341,9.99360547 C22.3992693,9.87848236 22.2991825,9.71485205 22.182849,9.59912376 C22.0677259,9.48344202 21.8806799,9.46058498 21.7662086,9.5757081 L16.4562538,14.8635041 L16.0970585,14.8635041 L14.0827066,14.8635041 C13.4849788,14.8635041 13,15.3335863 13,15.913857 L13,25.2254224 C13,25.8033655 13.4849788,26.274565 14.0827066,26.274565 L14.4730452,26.274565 L14.4730452,27.2410312 C14.4730452,27.3837131 14.5893321,27.5 14.7326192,27.5 L15.5911313,27.5 C15.7338132,27.5 15.8507053,27.3837131 15.8507053,27.2410312 L15.8507053,26.274565 L21.964008,26.274565 L21.964008,27.2410312 C21.964008,27.3837131 22.0815053,27.5 22.2248855,27.5 L23.0827459,27.5 C23.226033,27.5 23.3423664,27.3837131 23.3423664,27.2410312 L23.3423664,26.274565 L23.7069152,26.274565 C24.3070171,26.274565 24.792089,25.8033655 24.792089,25.2254224 L24.792089,15.913857 C24.7920425,15.3335863 24.3069706,14.8635041 23.7069152,14.8635041 L23.7069152,14.8635041 Z" id="icon-trolleybus" fill="#FFFFFF" fill-rule="nonzero"></path>
            </g>
        </g>
    </g>
</svg>