<?xml version="1.0" encoding="UTF-8"?>
<svg width="612px" height="165px" viewBox="0 0 612 165" version="1.1" xmlns="http://www.w3.org/2000/svg" xmlns:xlink="http://www.w3.org/1999/xlink">
    <!-- Generator: Sketch 55.1 (78136) - https://sketchapp.com -->
    <title>logo-iqhub-black</title>
    <desc>Created with Sketch.</desc>
    <g id="IQ-Hub" stroke="none" stroke-width="1" fill="none" fill-rule="evenodd">
        <g id="Artboard">
            <g id="Variant-09">
                <g id="Main">
                    <g id="Footer-Copy" transform="translate(228.000000, 0.000000)">
                        <rect id="Rectangle-3" fill="#468DF0" x="0" y="0" width="384" height="165" rx="10"></rect>
                        <text id="hub" font-family="Arial-BoldMT, Arial" font-size="138.139535" font-weight="bold" fill="#FFFFFF">
                            <tspan x="65.28" y="127.877907">hub</tspan>
                        </text>
                    </g>
                    <g id="Sign" fill="#252323">
                        <path d="M179.20734,134.494302 L193.990919,149.803145 C197.251357,153.179428 197.150089,158.56666 193.780077,161.821043 C190.403193,165.082061 185.018697,164.984599 181.762142,161.612337 L166.530905,145.83993 C153.300708,155.379614 137.05671,161 119.5,161 C75.0410776,161 39,124.958922 39,80.5 C39,36.0410776 75.0410776,0 119.5,0 C163.958922,0 200,36.0410776 200,80.5 C200,101.276003 192.129471,120.213746 179.20734,134.494302 Z M119.5,143 C154.017797,143 182,115.017797 182,80.5 C182,45.9822031 154.017797,18 119.5,18 C84.9822031,18 57,45.9822031 57,80.5 C57,115.017797 84.9822031,143 119.5,143 Z" id="Oval-3"></path>
                        <path d="M0.0144617887,152 L0,152 L0,9 L0.0144617887,9 C0.00486503624,8.8345585 0,8.6678474 0,8.5 C0,3.80557963 3.80557963,0 8.5,0 C13.1944204,0 17,3.80557963 17,8.5 C17,8.6678474 16.995135,8.8345585 16.9855382,9 L17,9 L17,152 L16.9855382,152 C16.7267293,156.46169 13.026573,160 8.5,160 C3.97342702,160 0.273270689,156.46169 0.0144617887,152 Z" id="Rectangle-1"></path>
                    </g>
                </g>
            </g>
        </g>
    </g>
</svg>