<?xml version="1.0" encoding="UTF-8"?>
<svg width="31px" height="49px" viewBox="0 0 31 49" version="1.1" xmlns="http://www.w3.org/2000/svg" xmlns:xlink="http://www.w3.org/1999/xlink">
    <!-- Generator: Sketch 47.1 (45422) - http://www.bohemiancoding.com/sketch -->
    <title>pin</title>
    <desc>Created with Sketch.</desc>
    <defs></defs>
    <g id="Page-1" stroke="none" stroke-width="1" fill="none" fill-rule="evenodd">
        <g id="marker-pin-google" fill="#007FFF">
            <path d="M15.2986965,48.709909 C14.1874765,43.2549482 12.2282292,38.7154588 9.85514638,34.5081702 C8.09492108,31.3873626 6.0557868,28.5067986 4.16906079,25.4805027 C3.53923593,24.4702362 2.99569272,23.4029549 2.39048952,22.354478 C1.18037356,20.2580139 0.199230388,17.8272863 0.261576212,14.6742325 C0.322489135,11.5935303 1.2134806,9.12230016 2.49829782,7.10176729 C4.61144752,3.77850248 8.15104717,1.05378816 12.9003341,0.337738517 C16.783456,-0.247712956 20.4241578,0.741398596 23.0059448,2.25106405 C25.1156846,3.48474405 26.7494687,5.13266117 27.9913463,7.07479421 C29.2875725,9.10186171 30.18017,11.4966427 30.255041,14.6203143 C30.293367,16.2206764 30.0313134,17.7027084 29.6621373,18.9320311 C29.2885207,20.1763476 28.6876459,21.2164809 28.1530448,22.3275067 C27.1094701,24.4962629 25.8011194,26.4834 24.4880939,28.4717128 C20.57714,34.394053 16.9063386,40.4338625 15.2986965,48.709909 L15.2986965,48.709909 Z" id="pin"></path>
        </g>
    </g>
</svg>